<?xml version='1.0' encoding='iso-8859-1'?>
<!-- Uploaded to: SVG Repo, www.svgrepo.com, Generator: SVG Repo Mixer Tools -->
<svg fill="#000000" height="800px" width="800px" version="1.1" xmlns="http://www.w3.org/2000/svg" viewBox="0 0 463 463" xmlns:xlink="http://www.w3.org/1999/xlink" enable-background="new 0 0 463 463">
  <g>
    <path d="m303.5,416h-0.5v-178.234c9.29-3.138 16-11.93 16-22.266v-48c0-17.369-14.131-31.5-31.5-31.5h-48.5v-17.723c18.205-3.515 32-19.561 32-38.777 0-18.767-27.521-66.44-33.038-75.807-1.348-2.288-3.806-3.693-6.462-3.693s-5.114,1.405-6.462,3.693c-5.517,9.367-33.038,57.04-33.038,75.807 0,19.216 13.795,35.262 32,38.777v17.723h-48.5c-17.369,0-31.5,14.131-31.5,31.5v40c0,10.336 6.71,19.128 16,22.266v186.234h-0.5c-12.958,0-23.5,10.542-23.5,23.5s10.542,23.5 23.5,23.5h144c12.958,0 23.5-10.542 23.5-23.5s-10.542-23.5-23.5-23.5zm-96.5-336.5c0-5.422 6.78-25.214 24.501-56.937 17.72,31.717 24.499,51.511 24.499,56.937 0,10.894-7.149,20.146-17,23.321v-15.321c0-4.142-3.357-7.5-7.5-7.5s-7.5,3.358-7.5,7.5v15.321c-9.851-3.175-17-12.427-17-23.321zm56.271,336.5l24.729-12.365v12.365h-24.729zm-104.271-248.5c0-9.098 7.402-16.5 16.5-16.5h112c9.098,0 16.5,7.402 16.5,16.5v48c0,4.687-3.813,8.5-8.5,8.5s-8.5-3.813-8.5-8.5v-24c0-12.958-10.542-23.5-23.5-23.5s-23.5,10.542-23.5,23.5v48c0,4.687-3.813,8.5-8.5,8.5s-8.5-3.813-8.5-8.5v-32c0-12.958-10.542-23.5-23.5-23.5s-23.5,10.542-23.5,23.5c0,4.687-3.813,8.5-8.5,8.5s-8.5-3.813-8.5-8.5v-40zm96,43.865v-19.865c0-4.687 3.813-8.5 8.5-8.5s8.5,3.813 8.5,8.5v11.365l-17,8.5zm-80,40v-21.599c9.29-3.138 16-11.93 16-22.266 0-4.687 3.813-8.5 8.5-8.5s8.5,3.813 8.5,8.5v27.365l-33,16.5zm0,160.77l19.584-9.792c3.704-1.852 5.206-6.357 3.354-10.062-1.851-3.705-6.354-5.207-10.063-3.354l-12.875,6.438v-31.229l19.852-9.926c3.704-1.852 5.206-6.357 3.354-10.062-1.852-3.705-6.355-5.207-10.063-3.354l-13.143,6.571v-31.229l19.854-9.927c3.704-1.852 5.206-6.357 3.354-10.062-1.851-3.705-6.354-5.207-10.063-3.354l-13.145,6.572v-31.229l35.646-17.823c3.92,7.53 11.794,12.688 20.854,12.688 12.958,0 23.5-10.542 23.5-23.5v-11.365l17.341-8.671c1.464,8.573 7.583,15.573 15.659,18.301v5.099l-27.855,13.928c-3.704,1.852-5.206,6.357-3.354,10.062 1.313,2.628 3.963,4.147 6.714,4.147 1.127,0 2.271-0.255 3.349-0.793l21.146-10.574v31.229l-27.855,13.928c-3.704,1.852-5.206,6.357-3.354,10.062 1.313,2.628 3.963,4.147 6.714,4.147 1.127,0 2.271-0.255 3.349-0.793l21.146-10.573v31.229l-27.855,13.928c-3.704,1.852-5.206,6.357-3.354,10.062 1.313,2.628 3.963,4.147 6.714,4.147 1.127,0 2.271-0.255 3.349-0.793l21.146-10.573v31.229l-58.271,29.136h-54.729v-3.865zm128.5,35.865h-144c-4.687,0-8.5-3.813-8.5-8.5s3.813-8.5 8.5-8.5h71.985c0.007,0 0.014,0.001 0.021,0.001 0.009,0 0.017-0.001 0.026-0.001h71.968c4.687,0 8.5,3.813 8.5,8.5s-3.813,8.5-8.5,8.5z"/>
    <path d="m220.506,340.501c1.127,0 2.271-0.255 3.349-0.793l15-7.5c3.704-1.852 5.206-6.357 3.354-10.062-1.851-3.705-6.355-5.207-10.063-3.354l-15,7.5c-3.704,1.852-5.206,6.357-3.354,10.062 1.313,2.628 3.963,4.147 6.714,4.147z"/>
    <path d="m219.506,293.001c1.127,0 2.271-0.255 3.348-0.793l15.5-7.75c3.705-1.853 5.207-6.357 3.354-10.063-1.852-3.705-6.357-5.206-10.062-3.354l-15.5,7.75c-3.705,1.853-5.207,6.357-3.354,10.063 1.313,2.628 3.963,4.147 6.714,4.147z"/>
    <path d="m240.854,379.208c3.704-1.852 5.206-6.357 3.354-10.062-1.851-3.705-6.355-5.207-10.063-3.354l-15,7.5c-3.704,1.852-5.206,6.357-3.354,10.062 1.313,2.628 3.963,4.147 6.714,4.147 1.127,0 2.271-0.255 3.349-0.793l15-7.5z"/>
  </g>
</svg>